<svg t="1611060462930" class="icon" viewBox="0 0 1024 1024" version="1.1" xmlns="http://www.w3.org/2000/svg" p-id="13345" width="32" height="32"><path d="M62 768.95C62 827.45 110.6 872 174.5 872h675c63.9 0 112.5-44.55 112.5-103.05v-377.1H62v377.1zM692 546.2c-11.25-10.35-14.85-23.85-3.6-34.2s26.1-13.5 37.35-3.6l112.5 85.5c6.75 3.15 11.25 9.9 11.25 17.1-0.9 7.2-3.6 14.4-7.65 20.7l-112.5 99.45c-10.8 9-26.55 9-37.35 0-11.25-10.35-11.25-27.45 0-34.2l90-78.75-90-72zM429.65 696.95L542.15 512c7.65-13.5 22.5-17.1 37.35-10.35s18.9 20.7 11.25 34.2L478.25 720.8c-4.95 7.65-13.5 12.6-22.5 13.5-3.6 0-11.25 0-14.85-3.6-11.25-6.3-18.9-19.8-11.25-33.75z m-243.9-106.2l112.5-85.5c11.25-9.45 27.9-8.1 37.35 3.15 8.55 8.1 9 22.05 0.9 30.6-1.35 1.35-2.7 2.7-4.5 3.6L242 611l90 78.75c9.45 7.2 11.25 20.7 4.05 30.15-1.35 1.35-2.25 2.7-4.05 4.05-10.8 9-26.55 9-37.35 0l-112.5-99.45c-5.4-5.4-8.1-13.05-7.65-20.7 0-2.7 3.6-6.3 11.25-13.05zM849.5 152h-675C110.6 152 62 196.55 62 255.05V358.1h900V255.05C962 196.55 913.4 152 849.5 152zM249.65 289.25H174.5V220.4h75.15v68.85z m149.85 0h-75.15V220.4h75.15v68.85z m149.85 0h-74.7V220.4h75.15v68.85z" p-id="13346"></path></svg>